<svg xmlns="http://www.w3.org/2000/svg" width="3.6in" height="3.6in" viewBox="0 0 257.8 257.8"><path d="M116.5.2h26a15.4 15.4 0 0 0 2.7 1c51.8 8 87 36.6 105.2 85.6 3.5 9.4 4.8 19.6 7 29.4v24c-.6 3.2-1.3 6.5-1.9 9.7A128.1 128.1 0 0 1 110.7 255C42.3 245-5.5 182.3 2.4 113A127.4 127.4 0 0 1 94.3 5.2c7.3-2.1 14.8-3.4 22.2-5zm125.4 128.2c.3-62.1-49.7-112.3-112.1-112.7S17.6 65.2 17 127.7s50 112.9 112.4 112.9a112.2 112.2 0 0 0 112.5-112.2z"/><path d="M139.1 184.3h-25.2v-55.8h-12.1v-19.7h11.4c.4-6.5.3-12.5 1.2-18.3 1.6-10.8 8.1-17.1 18.9-18 7.8-.6 15.6-.1 23.8-.1v19c-3.7 0-7.3-.1-10.9 0-5.6.3-7 1.7-7.3 7.3-.1 2.5-.1 5 0 7.5a16.4 16.4 0 0 0 .5 2.5h18.4l-2.3 19.6h-16.4z"/></svg>